<?xml version="1.0" encoding="UTF-8" standalone="no"?><!-- Generator: Gravit.io --><svg xmlns="http://www.w3.org/2000/svg" xmlns:xlink="http://www.w3.org/1999/xlink" style="isolation:isolate" viewBox="0 0 168.5 49.6" width="168.5pt" height="49.6pt"><defs><clipPath id="_clipPath_evnVfS79H1uGHubBbGWlIYCKUtvbguEW"><rect width="168.5" height="49.6"/></clipPath></defs><g clip-path="url(#_clipPath_evnVfS79H1uGHubBbGWlIYCKUtvbguEW)"><g><g><path d=" M 11.244 16.192 C 20.979 12.846 35.285 11.943 54.135 13.455 C 67.993 17.115 77.128 23.816 81.512 33.531 C 63.794 18.184 39.164 14.543 7.594 22.58 L 11.244 16.192 Z " fill="rgb(255,178,130)"/><path d=" M 26.531 5.033 C 34.466 2.925 45.899 3.02 60.811 5.296 C 71.627 8.997 78.513 14.848 81.449 22.827 C 68.226 9.608 48.838 5.31 23.264 9.907 L 26.531 5.033 Z " fill="rgb(255,205,174)"/><path d=" M 142.817 5.345 C 134.883 3.236 123.45 3.332 108.538 5.608 C 97.722 9.308 90.836 15.16 87.9 23.138 C 101.123 9.92 120.511 5.621 146.085 10.219 L 142.817 5.345 Z " fill="rgb(255,205,174)"/><path d=" M 157.255 16.192 C 147.521 12.846 133.215 11.943 114.365 13.455 C 100.507 17.115 91.372 23.816 86.988 33.531 C 104.705 18.184 129.336 14.543 160.906 22.58 L 157.255 16.192 Z " fill="rgb(255,178,130)"/><path d=" M 8.396 26.25 C 37.944 18.791 61.984 21.233 76.949 34.444 C 81.512 43.265 86.693 43.274 92.463 34.444 C 108.073 21.156 131.818 18.74 160.114 26.211 C 162.062 26.725 163.439 28.574 163.187 30.337 L 163.187 30.337 C 162.935 32.1 161.164 33.061 159.234 32.482 C 129.788 23.649 107.896 25.483 97.026 39.006 C 88.509 48.436 80.305 48.445 72.387 39.006 C 61.63 26.361 39.433 24.544 9.296 32.59 C 7.349 33.109 5.565 32.1 5.313 30.337 L 5.313 30.337 C 5.061 28.574 6.442 26.743 8.396 26.25 Z " fill="rgb(255,140,66)"/></g></g></g></svg>